<svg width="15" height="15" xmlns="http://www.w3.org/2000/svg">
 <g>
  <title>background</title>
  <rect x="-1" y="-1" width="17" height="17" id="canvas_background" fill="none"/>
 </g>

 <g>
  <title>Layer 1</title>
  <g stroke="null" id="svg_11">
   <g stroke="null" id="svg_9">
    <title stroke="null" transform="translate(0,0.12499935925006866) translate(0,-0.12499935925006866) translate(0,0.12499935925006866) translate(0,0.12499935925006866) translate(0,0.12499935925006866) translate(-0.12499935925006866,0) translate(0.12499935925006866,0) translate(0.12499935925006866,0) translate(0.12499935925006866,0) translate(0.12499935925006866,0) translate(-0.3749980926513672,-0.3749980926513672) translate(-0.12499935925006866,0) translate(0.12499935925006866,0) translate(-1,0) translate(1,0) translate(0,1) translate(1,0) translate(0,1) translate(0,1) translate(1,0) translate(1,0) translate(0,1) translate(0,1) translate(0,1) translate(1,0) translate(1,0) translate(-0.6143450140953064,-0.19052399694919586) scale(1.083332896232605,1.0333331823349) translate(0.6143450140953064,0.19052399694919586) translate(-0.5670879483222961,14.815622329711914) scale(1,1.0322579145431519) translate(0.5670879483222961,-14.815622329711914) translate(-0.5670879483222961,14.352636337280273) scale(1,0.9843750596046448) translate(0.5670879483222961,-14.352636337280273) translate(14.432912826538086,-0.4195454716682434) scale(1) translate(-14.432912826538086,0.4195454716682434) translate(14.432912826538086,-0.4195454716682434) scale(0.992307722568512,1) translate(-14.432912826538086,0.4195454716682434) translate(-0.4552052915096283,-0.4195454716682434) scale(0.9844961762428284,1) translate(0.4552052915096283,0.4195454716682434) translate(-0.46237388253211975,-0.4195454716682434) scale(1.0078740119934082,1) translate(0.46237388253211975,0.4195454716682434) translate(-0.4587615728378296,-0.4195454716682434) scale(1) translate(0.4587615728378296,0.4195454716682434) translate(-0.4587615728378296,-0.4195454716682434) scale(1,1.0079364776611328) translate(0.4587615728378296,0.4195454716682434) ">background</title>
    <rect stroke="null" fill="none" id="svg_7" height="15.874996" width="15.999995" y="-0.440523" x="-0.489346"/>
   </g>
   <g stroke="null" id="svg_10">
    <title stroke="null" transform="translate(0,0.12499935925006866) translate(0,-0.12499935925006866) translate(0,0.12499935925006866) translate(0,0.12499935925006866) translate(0,0.12499935925006866) translate(-0.12499935925006866,0) translate(0.12499935925006866,0) translate(0.12499935925006866,0) translate(0.12499935925006866,0) translate(0.12499935925006866,0) translate(-0.3749980926513672,-0.3749980926513672) translate(-0.12499935925006866,0) translate(0.12499935925006866,0) translate(-1,0) translate(1,0) translate(0,1) translate(1,0) translate(0,1) translate(0,1) translate(1,0) translate(1,0) translate(0,1) translate(0,1) translate(0,1) translate(1,0) translate(1,0) translate(-0.6143450140953064,-0.19052399694919586) scale(1.083332896232605,1.0333331823349) translate(0.6143450140953064,0.19052399694919586) translate(-0.5670879483222961,14.815622329711914) scale(1,1.0322579145431519) translate(0.5670879483222961,-14.815622329711914) translate(-0.5670879483222961,14.352636337280273) scale(1,0.9843750596046448) translate(0.5670879483222961,-14.352636337280273) translate(14.432912826538086,-0.4195454716682434) scale(1) translate(-14.432912826538086,0.4195454716682434) translate(14.432912826538086,-0.4195454716682434) scale(0.992307722568512,1) translate(-14.432912826538086,0.4195454716682434) translate(-0.4552052915096283,-0.4195454716682434) scale(0.9844961762428284,1) translate(0.4552052915096283,0.4195454716682434) translate(-0.46237388253211975,-0.4195454716682434) scale(1.0078740119934082,1) translate(0.46237388253211975,0.4195454716682434) translate(-0.4587615728378296,-0.4195454716682434) scale(1) translate(0.4587615728378296,0.4195454716682434) translate(-0.4587615728378296,-0.4195454716682434) scale(1,1.0079364776611328) translate(0.4587615728378296,0.4195454716682434) ">Layer 1</title>
    <ellipse stroke="#25c6d0" ry="6.879165" rx="6.933331" id="svg_6" cy="7.496975" cx="7.510652" fill="#25c6d0"/>
   </g>
  </g>
  <g stroke="null" stroke-opacity="0" id="svg_1">
   <g stroke="null" id="svg_2">
    <path stroke="null" fill="#fff" id="svg_2" d="m7.47153,11.12462c-0.18628,0 -0.37254,-0.07952 -0.51455,-0.23821l-4.46913,-4.9965c-0.2843,-0.31784 -0.2843,-0.83315 0,-1.15087c0.28419,-0.31771 0.74502,-0.31771 1.02934,0l3.95433,4.42118l3.95436,-4.42101c0.2843,-0.31771 0.7451,-0.31771 1.02925,0c0.28444,0.31771 0.28444,0.83303 0,1.15087l-4.46905,4.9965c-0.14209,0.15872 -0.32835,0.23807 -0.51455,0.23807l0.00001,-0.00001l0,-0.00001z"/>
   </g>
  </g>
 </g>
</svg>